<svg width="381" height="136" viewBox="0 0 381 136" fill="none" xmlns="http://www.w3.org/2000/svg">
<g clip-path="url(#clip0_293_284)">
<path fill-rule="evenodd" clip-rule="evenodd" d="M64.4364 51.8632H92.6221V51.8555H43.9069C12.6959 51.8632 0 64.586 0 96.1052V134.795L20.5218 134.787V96.1052C20.5218 64.5782 33.2254 51.8632 64.4364 51.8632Z" fill="#FEFEFE"/>
<path fill-rule="evenodd" clip-rule="evenodd" d="M67.4539 51.8633C36.2429 51.8633 23.547 64.5861 23.547 96.1053V134.787H44.91L44.91 96.1053C44.91 64.5783 57.5982 51.8633 88.817 51.8633H95.6318H67.4539Z" fill="#FEFEFE"/>
<path fill-rule="evenodd" clip-rule="evenodd" d="M91.8269 51.8633C60.6082 51.8633 47.92 64.5861 47.92 96.1053V134.787L69.283 134.779V97.0696C69.283 64.866 82.2568 51.8633 114.162 51.8633H119.164H91.8269Z" fill="#FEFEFE"/>
<path fill-rule="evenodd" clip-rule="evenodd" d="M133.588 0.0622559C114.093 0.0622559 106.151 8.02566 106.151 27.7164V51.9021L127.507 51.8944V27.7164C127.507 8.02566 135.448 0.0622559 154.959 0.0622559L157.599 0.0622559L133.588 0.0622559Z" fill="#FEFEFE"/>
<path fill-rule="evenodd" clip-rule="evenodd" d="M151.888 51.8866V27.6542C151.888 8.85 159.135 0.762164 176.762 0.0622559L157.969 0.0622559C138.451 0.0622559 130.524 8.02566 130.524 27.7164V51.9021L151.88 51.8788L151.888 51.8866Z" fill="#FEFEFE"/>
<path fill-rule="evenodd" clip-rule="evenodd" d="M182.342 0C162.839 0 154.905 7.95563 154.905 27.6464V51.8321H178.915C198.411 51.8321 206.345 43.8843 206.345 24.1935V0L182.342 0Z" fill="#FEFEFE"/>
<path fill-rule="evenodd" clip-rule="evenodd" d="M348.739 103.346L348.747 103.338H348.731L348.739 103.346Z" fill="#FEFEFE"/>
<path fill-rule="evenodd" clip-rule="evenodd" d="M115.39 90.4359C115.073 86.0576 113.653 82.317 109.54 82.317C106.375 82.317 104.477 85.1788 104.477 88.445C104.477 91.4002 105.742 94.7364 109.933 98.8815L116.493 105.336C122.027 110.757 123.687 115.213 123.687 121.349C123.687 129.397 118.863 136 109.694 136C101.791 136 96.5737 131.062 95.6244 121.986L103.288 119.513C103.759 124.926 105.742 129.071 109.771 129.071C112.696 129.071 115.621 126.598 115.621 121.908C115.621 118.72 114.278 115.135 109.933 110.757L103.612 104.465C98.3951 99.2081 96.4193 94.6665 96.4193 88.935C96.4193 80.2561 102.663 74.999 109.385 74.999C117.366 74.999 122.429 79.8595 122.668 87.8229L115.398 90.4514L115.39 90.4359Z" fill="#FEFEFE"/>
<path fill-rule="evenodd" clip-rule="evenodd" d="M138.474 128.985C140.843 128.985 144.401 126.201 144.401 119.824V114.171H142.425C135.155 114.171 134.36 118.316 134.36 122.453C134.36 126.279 135.07 128.985 138.474 128.985ZM144.401 134.802V128.511H144.247C142.032 133.527 139.346 135.518 135.395 135.518C132.392 135.518 126.696 133.846 126.696 123.409C126.696 112.102 131.049 108.276 141.561 108.276H144.409V102.778C144.409 99.9081 143.143 97.7617 139.585 97.7617C136.498 97.7617 135.078 99.4337 134.684 103.174L127.885 101.261C129.074 93.5389 133.974 91.2214 139.979 91.2214C147.334 91.2214 151.679 94.4877 151.679 102.459V134.795H144.409L144.401 134.802Z" fill="#FEFEFE"/>
<path fill-rule="evenodd" clip-rule="evenodd" d="M158.317 91.9524H165.587V97.7694H165.749C167.64 92.9867 170.411 91.2369 174.208 91.2369C178.399 91.2369 182.111 95.1409 182.111 100.717V134.81H174.439V103.828C174.439 100.484 172.857 98.5704 170.727 98.5704C167.64 98.5704 165.981 101.518 165.981 104.621V134.81H158.309V91.9602L158.317 91.9524Z" fill="#FEFEFE"/>
<path fill-rule="evenodd" clip-rule="evenodd" d="M202.578 98.8815H198.472V124.133C198.472 126.279 199.661 127.477 201.637 127.477H202.586V134.406C201.32 134.639 200.062 134.802 198.951 134.802C194.05 134.802 190.808 132.493 190.808 127.072V98.8737H186.695V91.9446H190.808V81.2671H198.48V91.9446H202.586V98.8737L202.578 98.8815Z" fill="#FEFEFE"/>
<path fill-rule="evenodd" clip-rule="evenodd" d="M216.888 128.985C219.257 128.985 222.815 126.201 222.815 119.824V114.171H220.839C213.569 114.171 212.774 118.316 212.774 122.453C212.774 126.279 213.484 128.985 216.888 128.985ZM222.823 134.802V128.511H222.668C220.453 133.527 217.767 135.518 213.816 135.518C210.814 135.518 205.126 133.846 205.126 123.409C205.126 112.102 209.471 108.276 219.982 108.276H222.83V102.778C222.83 99.9081 221.565 97.7617 218.007 97.7617C214.92 97.7617 213.499 99.4337 213.106 103.174L206.306 101.261C207.495 93.5389 212.396 91.2214 218.4 91.2214C225.755 91.2214 230.101 94.4877 230.101 102.459V134.795H222.83L222.823 134.802Z" fill="#FEFEFE"/>
<path fill-rule="evenodd" clip-rule="evenodd" d="M236.73 91.9524H244V97.7694H244.162C246.061 92.9867 248.824 91.2369 252.621 91.2369C256.812 91.2369 260.524 95.1409 260.524 100.717V134.81H252.86V103.828C252.86 100.484 251.278 98.5704 249.148 98.5704C246.061 98.5704 244.401 101.518 244.401 104.621V134.81H236.73V91.9602V91.9524Z" fill="#FEFEFE"/>
<path fill-rule="evenodd" clip-rule="evenodd" d="M285.113 108.276C285.113 103.182 283.847 97.7617 279.734 97.7617C275.62 97.7617 274.516 103.174 274.516 108.276H285.113ZM274.516 114.171C274.594 121.815 274.987 128.985 279.973 128.985C283.531 128.985 284.635 124.607 284.797 121.419H291.673C291.596 128.659 287.876 135.51 279.819 135.51C270.889 135.51 266.853 129.304 266.853 112.258C266.853 97.684 271.753 91.2292 279.973 91.2292C287.56 91.2292 292.383 97.2873 292.383 108.035V114.171H274.516Z" fill="#FEFEFE"/>
<path fill-rule="evenodd" clip-rule="evenodd" d="M298.712 91.9524H305.983V97.7694H306.145C308.043 92.9867 310.814 91.2369 314.603 91.2369C318.794 91.2369 322.514 95.1409 322.514 100.717V134.81H314.843V103.828C314.843 100.484 313.26 98.5704 311.13 98.5704C308.051 98.5704 306.384 101.518 306.384 104.621V134.81H298.72V91.9602L298.712 91.9524Z" fill="#FEFEFE"/>
<path fill-rule="evenodd" clip-rule="evenodd" d="M334.122 123.021C334.199 126.038 336.098 128.993 339.339 128.993C342.187 128.993 343.684 126.761 343.684 124.693C343.684 122.624 342.581 120.392 338.946 117.522L334.917 114.334C329.7 110.189 327.955 107.086 327.955 102.552C327.955 95.5375 332.856 91.2369 339.262 91.2369C345.668 91.2369 349.064 94.9076 350.877 99.6047L344.317 103.586C344.163 100.553 342.503 97.7694 339.177 97.7694C336.731 97.7694 335.226 99.3637 335.226 101.673C335.226 103.509 336.013 105.017 339.964 108.05L344.788 111.799C349.766 115.703 351.348 119.599 351.348 123.822C351.348 130.113 347.003 135.533 339.169 135.533C333.558 135.533 329.838 133.146 327.469 127.251L334.106 123.036L334.122 123.021Z" fill="#FEFEFE"/>
<path fill-rule="evenodd" clip-rule="evenodd" d="M373.73 108.276C373.73 103.182 372.464 97.7617 368.35 97.7617C364.237 97.7617 363.133 103.174 363.133 108.276H373.73ZM363.133 114.171C363.21 121.815 363.612 128.985 368.59 128.985C372.148 128.985 373.251 124.607 373.413 121.419H380.29C380.213 128.659 376.493 135.51 368.435 135.51C359.498 135.51 355.469 129.304 355.469 112.258C355.469 97.684 360.37 91.2292 368.59 91.2292C376.176 91.2292 381 97.2873 381 108.035V114.171H363.133Z" fill="#FEFEFE"/>
</g>
<defs>
<clipPath id="clip0_293_284">
<rect width="136" height="381" fill="white" transform="matrix(0 1 -1 0 381 0)"/>
</clipPath>
</defs>
</svg>
