<svg xmlns="http://www.w3.org/2000/svg" width="800" height="800" viewBox="0 0 800 800">
<defs>
  <filter id="fiber-light" x="0" y="0" width="100%" height="100%">
    <feTurbulence type="fractalNoise" baseFrequency="0.9" numOctaves="3" seed="51" stitchTiles="stitch"/>
    <feColorMatrix type="matrix" values="0 0 0 0 1  0 0 0 0 1  0 0 0 0 1  0.35 0.35 0.35 0 0"/>
  </filter>
  <filter id="fiber-dark" x="0" y="0" width="100%" height="100%">
    <feTurbulence type="fractalNoise" baseFrequency="0.5" numOctaves="2" seed="64" stitchTiles="stitch"/>
    <feColorMatrix type="matrix" values="0 0 0 0 0  0 0 0 0 0  0 0 0 0 0  0.25 0.25 0.25 0 0"/>
  </filter>
  <pattern id="weave" width="7" height="7" patternUnits="userSpaceOnUse">
    <path d="M0 3.5h7" stroke="#000000" stroke-opacity="0.055" stroke-width="1.4"/>
    <path d="M3.5 0v7" stroke="#ffffff" stroke-opacity="0.075" stroke-width="1.4"/>
  </pattern>
  <radialGradient id="vignette" cx="50%" cy="42%" r="75%">
    <stop offset="60%" stop-color="#000000" stop-opacity="0"/>
    <stop offset="100%" stop-color="#000000" stop-opacity="0.13"/>
  </radialGradient>
  <pattern id="floral" width="170" height="170" patternUnits="userSpaceOnUse">
    <circle cx="56.8" cy="46.6" r="10.8" fill="#f0e9d8"/><circle cx="44.1" cy="58.9" r="10.8" fill="#f0e9d8"/><circle cx="28.5" cy="50.6" r="10.8" fill="#f0e9d8"/><circle cx="31.6" cy="33.2" r="10.8" fill="#f0e9d8"/><circle cx="49.0" cy="30.8" r="10.8" fill="#f0e9d8"/><circle cx="42" cy="44" r="7.5" fill="#f3d98a"/>
    <circle cx="138.0" cy="130.4" r="9.4" fill="#e8b7c4"/><circle cx="123.1" cy="134.1" r="9.4" fill="#e8b7c4"/><circle cx="115.0" cy="121.1" r="9.4" fill="#e8b7c4"/><circle cx="124.9" cy="109.4" r="9.4" fill="#e8b7c4"/><circle cx="139.0" cy="115.1" r="9.4" fill="#e8b7c4"/><circle cx="128" cy="122" r="6.5" fill="#f3d98a"/>
    <circle cx="120" cy="34" r="4.5" fill="#e8b7c4"/>
    <circle cx="36" cy="132" r="4.5" fill="#f0e9d8"/>
    <circle cx="86" cy="84" r="3.5" fill="#f3d98a"/>
  </pattern></defs>
<rect width="800" height="800" fill="#5d8a58"/><rect width="800" height="800" fill="url(#floral)"/>
<rect width="800" height="800" filter="url(#fiber-light)" opacity="0.5"/>
<rect width="800" height="800" filter="url(#fiber-dark)" opacity="0.5"/>
<rect width="800" height="800" fill="url(#weave)"/>
<rect width="800" height="800" fill="url(#vignette)"/>
</svg>
