<svg xmlns="http://www.w3.org/2000/svg" width="800" height="800" viewBox="0 0 800 800">
<defs>
  <filter id="fiber-light" x="0" y="0" width="100%" height="100%">
    <feTurbulence type="fractalNoise" baseFrequency="0.9" numOctaves="3" seed="45" stitchTiles="stitch"/>
    <feColorMatrix type="matrix" values="0 0 0 0 1  0 0 0 0 1  0 0 0 0 1  0.35 0.35 0.35 0 0"/>
  </filter>
  <filter id="fiber-dark" x="0" y="0" width="100%" height="100%">
    <feTurbulence type="fractalNoise" baseFrequency="0.5" numOctaves="2" seed="58" stitchTiles="stitch"/>
    <feColorMatrix type="matrix" values="0 0 0 0 0  0 0 0 0 0  0 0 0 0 0  0.25 0.25 0.25 0 0"/>
  </filter>
  <pattern id="weave" width="7" height="7" patternUnits="userSpaceOnUse">
    <path d="M0 3.5h7" stroke="#000000" stroke-opacity="0.055" stroke-width="1.4"/>
    <path d="M3.5 0v7" stroke="#ffffff" stroke-opacity="0.075" stroke-width="1.4"/>
  </pattern>
  <radialGradient id="vignette" cx="50%" cy="42%" r="75%">
    <stop offset="60%" stop-color="#000000" stop-opacity="0"/>
    <stop offset="100%" stop-color="#000000" stop-opacity="0.13"/>
  </radialGradient>
  <pattern id="borboletas" width="190" height="190" patternUnits="userSpaceOnUse">
    <g transform="translate(50 52) rotate(-12) scale(1.15)" opacity="0.92">
    <ellipse cx="-9" cy="-6" rx="10" ry="13" transform="rotate(-22 -9 -6)" fill="#f0e4cf"/>
    <ellipse cx="9" cy="-6" rx="10" ry="13" transform="rotate(22 9 -6)" fill="#f0e4cf"/>
    <ellipse cx="-7" cy="9" rx="7" ry="9" transform="rotate(-38 -7 9)" fill="#f0e4cf" opacity="0.85"/>
    <ellipse cx="7" cy="9" rx="7" ry="9" transform="rotate(38 7 9)" fill="#f0e4cf" opacity="0.85"/>
    <rect x="-1.8" y="-12" width="3.6" height="26" rx="1.8" fill="#5a4026"/>
  </g>
    <g transform="translate(142 140) rotate(24) scale(0.9)" opacity="0.92">
    <ellipse cx="-9" cy="-6" rx="10" ry="13" transform="rotate(-22 -9 -6)" fill="#f0e4cf"/>
    <ellipse cx="9" cy="-6" rx="10" ry="13" transform="rotate(22 9 -6)" fill="#f0e4cf"/>
    <ellipse cx="-7" cy="9" rx="7" ry="9" transform="rotate(-38 -7 9)" fill="#f0e4cf" opacity="0.85"/>
    <ellipse cx="7" cy="9" rx="7" ry="9" transform="rotate(38 7 9)" fill="#f0e4cf" opacity="0.85"/>
    <rect x="-1.8" y="-12" width="3.6" height="26" rx="1.8" fill="#5a4026"/>
  </g>
    <circle cx="140" cy="44" r="3.5" fill="#f0e4cf" opacity="0.7"/>
    <circle cx="46" cy="148" r="3.5" fill="#f0e4cf" opacity="0.7"/>
  </pattern></defs>
<rect width="800" height="800" fill="#8a6844"/><rect width="800" height="800" fill="url(#borboletas)"/>
<rect width="800" height="800" filter="url(#fiber-light)" opacity="0.5"/>
<rect width="800" height="800" filter="url(#fiber-dark)" opacity="0.5"/>
<rect width="800" height="800" fill="url(#weave)"/>
<rect width="800" height="800" fill="url(#vignette)"/>
</svg>
